<mxfile host="app.diagrams.net" agent="Mozilla/5.0 (Windows NT 10.0; Win64; x64) AppleWebKit/537.36 (KHTML, like Gecko) Chrome/138.0.0.0 Safari/537.36" version="27.2.0">
  <diagram name="Страница 1" id="0">
    <mxGraphModel dx="7487" dy="3140" grid="1" gridSize="10" guides="1" tooltips="1" connect="1" arrows="1" fold="1" page="1" pageScale="1" pageWidth="827" pageHeight="1169" math="0" shadow="0">
      <root>
        <mxCell id="0" />
        <mxCell id="1" parent="0" />
        <mxCell id="main" value="" style="swimlane;fontStyle=0;align=center;verticalAlign=top;childLayout=stackLayout;horizontal=1;startSize=30;horizontalStack=0;resizeParent=1;resizeParentMax=0;resizeLast=0;collapsible=1;marginBottom=0;" parent="1" vertex="1">
          <mxGeometry x="100" y="100" width="800" height="600" as="geometry" />
        </mxCell>
        <mxCell id="main_header" value="&lt;div style=&quot;font-size:18px;padding:10px&quot;&gt;&lt;b&gt;HR Resume Screener&lt;/b&gt;&lt;/div&gt;" style="text;html=1;strokeColor=none;fillColor=none;align=center;verticalAlign=middle;" parent="main" vertex="1">
          <mxGeometry y="30" width="800" height="50" as="geometry" />
        </mxCell>
        <mxCell id="main_nav" value="&lt;div style=&quot;padding:15px;background:#f8f9fa;height:100%&quot;&gt;&lt;b&gt;Навигация&lt;/b&gt;&lt;br&gt;&lt;br&gt;• Дашборд&lt;br&gt;• Кандидаты&lt;br&gt;• Вакансии&lt;br&gt;• Аналитика&lt;/div&gt;" style="text;html=1;strokeColor=#ddd;fillColor=#f8f9fa;align=left;verticalAlign=top;" parent="main" vertex="1">
          <mxGeometry y="80" width="200" height="470" as="geometry" />
        </mxCell>
        <mxCell id="main_content" value="" style="shape=rect;strokeColor=#ddd;fillColor=#ffffff;align=left;verticalAlign=top;" parent="main" vertex="1">
          <mxGeometry x="200" y="80" width="600" height="470" as="geometry" />
        </mxCell>
        <mxCell id="dashboard_content" value="&lt;div style=&#39;padding:20px&#39;&gt;           &lt;div style=&#39;font-size:16px;padding:10px&#39;&gt;&lt;b&gt;Дашборд HR-аналитики&lt;/b&gt;&lt;/div&gt;           &lt;div style=&#39;margin-top:20px&#39;&gt;             &lt;b&gt;Ключевые метрики:&lt;/b&gt;&lt;br&gt;&lt;br&gt;             &lt;div style=&#39;display:flex;justify-content:space-between&#39;&gt;               &lt;div style=&#39;text-align:center;padding:15px;background:#fff;border:1px solid #ddd;border-radius:5px;width:30%&#39;&gt;                 &lt;div style=&#39;font-size:24px&#39;&gt;124&lt;/div&gt;                 &lt;div&gt;Всего кандидатов&lt;/div&gt;               &lt;/div&gt;               &lt;div style=&#39;text-align:center;padding:15px;background:#fff;border:1px solid #ddd;border-radius:5px;width:30%&#39;&gt;                 &lt;div style=&#39;font-size:24px&#39;&gt;12&lt;/div&gt;                 &lt;div&gt;Новых за неделю&lt;/div&gt;               &lt;/div&gt;               &lt;div style=&#39;text-align:center;padding:15px;background:#fff;border:1px solid #ddd;border-radius:5px;width:30%&#39;&gt;                 &lt;div style=&#39;font-size:24px&#39;&gt;5&lt;/div&gt;                 &lt;div&gt;Активных вакансий&lt;/div&gt;               &lt;/div&gt;             &lt;/div&gt;           &lt;/div&gt;           &lt;div style=&#39;margin-top:20px;padding:20px;background:#fff;border:1px solid #ddd;height:80px;display:flex;align-items:center;justify-content:center&#39;&gt;             График статистики найма по месяцам           &lt;/div&gt;           &lt;div style=&#39;margin-top:20px;padding:15px;background:#fff;border:1px solid #ddd;height:120px;overflow-y:auto&#39;&gt;             &lt;b&gt;Последние действия:&lt;/b&gt;&lt;br&gt;&lt;br&gt;             &lt;div style=&#39;padding:3px 0;border-bottom:1px solid #eee;font-size:13px&#39;&gt;&lt;b&gt;12.05&lt;/b&gt; - Анализ резюме Петрова И. (85%)&lt;/div&gt;             &lt;div style=&#39;padding:3px 0;border-bottom:1px solid #eee;font-size:13px&#39;&gt;&lt;b&gt;11.05&lt;/b&gt; - Добавлена вакансия Frontend Engineer&lt;/div&gt;             &lt;div style=&#39;padding:3px 0;border-bottom:1px solid #eee;font-size:13px&#39;&gt;&lt;b&gt;10.05&lt;/b&gt; - Назначено собеседование с Сидоровой А.&lt;/div&gt;           &lt;/div&gt;         &lt;/div&gt;" style="text;html=1;strokeColor=none;fillColor=none;align=left;verticalAlign=top;" parent="main_content" vertex="1">
          <mxGeometry width="600" height="470" as="geometry" />
        </mxCell>
        <mxCell id="main_status" value="&lt;div style=&quot;padding:8px 15px;background:#e9ecef&quot;&gt;Статус: 124 кандидата, 5 активных вакансий&lt;/div&gt;" style="text;html=1;strokeColor=none;fillColor=#e9ecef;align=left;verticalAlign=middle;" parent="main" vertex="1">
          <mxGeometry y="550" width="800" height="40" as="geometry" />
        </mxCell>
        <mxCell id="candidates" value="" style="swimlane;fontStyle=0;align=center;verticalAlign=top;childLayout=stackLayout;horizontal=1;startSize=30;horizontalStack=0;resizeParent=1;resizeParentMax=0;resizeLast=0;collapsible=1;marginBottom=0;" parent="1" vertex="1">
          <mxGeometry x="4670" y="100" width="800" height="580" as="geometry" />
        </mxCell>
        <mxCell id="candidates_header" value="&lt;div style=&quot;font-size:16px;padding:10px&quot;&gt;&lt;b&gt;Кандидаты&lt;/b&gt; | &lt;input type=&quot;text&quot; placeholder=&quot;Поиск...&quot; style=&quot;width:200px&quot;&gt; &lt;button&gt;🔍&lt;/button&gt;&lt;/div&gt;" style="text;html=1;strokeColor=none;fillColor=none;align=left;verticalAlign=middle;" parent="candidates" vertex="1">
          <mxGeometry y="30" width="800" height="50" as="geometry" />
        </mxCell>
        <mxCell id="DRcJ01BgWuFrHOqKFsZg-40" style="edgeStyle=orthogonalEdgeStyle;rounded=0;orthogonalLoop=1;jettySize=auto;html=1;" parent="candidates" source="candidates_table" edge="1">
          <mxGeometry relative="1" as="geometry">
            <mxPoint x="900" y="290" as="targetPoint" />
          </mxGeometry>
        </mxCell>
        <mxCell id="candidates_table" value="&lt;table style=&#39;width:100%;border-collapse:collapse;font-size:14px&#39;&gt;           &lt;tr style=&#39;background:#f8f9fa&#39;&gt;             &lt;th style=&#39;padding:10px;text-align:left;border-bottom:1px solid #ddd&#39;&gt;Имя&lt;/th&gt;             &lt;th style=&#39;padding:10px;text-align:left;border-bottom:1px solid #ddd&#39;&gt;Email&lt;/th&gt;             &lt;th style=&#39;padding:10px;text-align:left;border-bottom:1px solid #ddd&#39;&gt;Телефон&lt;/th&gt;             &lt;th style=&#39;padding:10px;text-align:left;border-bottom:1px solid #ddd&#39;&gt;Действия&lt;/th&gt;           &lt;/tr&gt;           &lt;tr&gt;             &lt;td style=&#39;padding:10px;border-bottom:1px solid #eee&#39;&gt;Иван Петров&lt;/td&gt;             &lt;td style=&#39;padding:10px;border-bottom:1px solid #eee&#39;&gt;ivan@mail.com&lt;/td&gt;             &lt;td style=&#39;padding:10px;border-bottom:1px solid #eee&#39;&gt;+790012345&lt;/td&gt;             &lt;td style=&#39;padding:10px;border-bottom:1px solid #eee&#39;&gt;&lt;button style=&#39;padding:5px 10px&#39;&gt;Посмотреть резюме&lt;/button&gt;&lt;/td&gt;           &lt;/tr&gt;           &lt;tr&gt;             &lt;td style=&#39;padding:10px;border-bottom:1px solid #eee&#39;&gt;...&lt;/td&gt;             &lt;td style=&#39;padding:10px;border-bottom:1px solid #eee&#39;&gt;...&lt;/td&gt;             &lt;td style=&#39;padding:10px;border-bottom:1px solid #eee&#39;&gt;...&lt;/td&gt;             &lt;td style=&#39;padding:10px;border-bottom:1px solid #eee&#39;&gt;&lt;button style=&#39;padding:5px 10px&#39;&gt;Посмотреть резюме&lt;/button&gt;&lt;/td&gt;           &lt;/tr&gt;         &lt;/table&gt;" style="text;html=1;strokeColor=none;fillColor=none;align=left;verticalAlign=top;" parent="candidates" vertex="1">
          <mxGeometry y="80" width="800" height="420" as="geometry" />
        </mxCell>
        <mxCell id="candidates_actions" value="&lt;div style=&quot;padding:15px;text-align:center&quot;&gt;           &lt;button style=&quot;margin-right:10px&quot;&gt;Добавить кандидата&lt;/button&gt;           &lt;button&gt;Импорт из CSV&lt;/button&gt;         &lt;/div&gt;" style="text;html=1;strokeColor=none;fillColor=#f8f9fa;align=center;verticalAlign=middle;" parent="candidates" vertex="1">
          <mxGeometry y="500" width="800" height="80" as="geometry" />
        </mxCell>
        <mxCell id="resume" value="" style="swimlane;fontStyle=0;align=center;verticalAlign=top;childLayout=stackLayout;horizontal=1;startSize=30;horizontalStack=0;resizeParent=1;resizeParentMax=0;resizeLast=0;collapsible=1;marginBottom=0;" parent="1" vertex="1">
          <mxGeometry x="5570" y="100" width="800" height="590" as="geometry" />
        </mxCell>
        <mxCell id="resume_header" value="&lt;div style=&quot;font-size:16px;padding:10px&quot;&gt;&lt;b&gt;Резюме: Иван Петров (Senior Java Developer)&lt;/b&gt;&lt;/div&gt;" style="text;html=1;strokeColor=none;fillColor=none;align=left;verticalAlign=middle;" parent="resume" vertex="1">
          <mxGeometry y="30" width="800" height="50" as="geometry" />
        </mxCell>
        <mxCell id="resume_header_area" style="swimlane;fontStyle=0;childLayout=horizontalLayout;align=left;horizontal=1;resizeParent=1;" parent="resume" vertex="1">
          <mxGeometry y="80" width="800" height="200" as="geometry" />
        </mxCell>
        <mxCell id="resume_photo" value="&lt;div style=&quot;width: 100%; height: 100%; display: flex; align-items: center; justify-content: center; background: rgb(248, 249, 250);&quot;&gt;Foto&lt;/div&gt;" style="shape=rect;strokeColor=#ddd;fillColor=#f8f9fa;align=center;verticalAlign=middle;whiteSpace=wrap;html=1;width=50;height=50;" parent="resume_header_area" vertex="1">
          <mxGeometry width="220" height="200" as="geometry" />
        </mxCell>
        <mxCell id="resume_info" value="&lt;div style=&quot;padding:20px&quot;&gt;&lt;br&gt;  &lt;b style=&quot;font-size:16px&quot;&gt;Основная информация:&lt;/b&gt;&lt;br&gt;&lt;br&gt;• Опыт: &lt;b&gt;5 лет&lt;/b&gt;&lt;br&gt;&lt;br&gt;• Навыки: &lt;b&gt;Java, Spring, Hibernate&lt;/b&gt;&lt;br&gt;&lt;br&gt;  • Образование: &lt;b&gt;МГУ, 2018&lt;/b&gt;&lt;br&gt;&lt;br&gt;  &lt;button style=&quot;padding:5px 10px&quot;&gt;Скачать резюме (PDF)&lt;/button&gt;&lt;br&gt;&lt;br&gt;&lt;/div&gt;" style="text;html=1;strokeColor=none;fillColor=none;align=left;verticalAlign=top;whiteSpace=wrap;spacingLeft=20;" parent="resume_header_area" vertex="1">
          <mxGeometry x="210" width="590" height="200" as="geometry" />
        </mxCell>
        <mxCell id="resume_tabs" value="&lt;div style=&#39;padding:10px;background:#f8f9fa;text-align:center&#39;&gt;           &lt;button style=&#39;margin:0 5px&#39;&gt;Опыт работы&lt;/button&gt;           &lt;button style=&#39;margin:0 5px&#39;&gt;Образование&lt;/button&gt;           &lt;button style=&#39;margin:0 5px&#39;&gt;Навыки&lt;/button&gt;         &lt;/div&gt;" style="text;html=1;strokeColor=#ddd;fillColor=#f8f9fa;align=center;verticalAlign=middle;" parent="resume" vertex="1">
          <mxGeometry y="280" width="800" height="50" as="geometry" />
        </mxCell>
        <mxCell id="resume_content" value="&lt;div style=&quot;padding:20px;height:190px;overflow:auto;white-space:normal;line-height:1.5&quot;&gt;&lt;b style=&quot;font-size:16px&quot;&gt;Опыт работы:&lt;/b&gt;&lt;br&gt;&lt;div style=&quot;margin-bottom:15px&quot;&gt;&lt;b&gt;Senior Java Developer&lt;/b&gt;, Яндекс (2020-н.в.)&lt;br&gt;- Разработка микросервисов&lt;br&gt;- Оптимизация производительности&lt;br&gt;  &lt;/div&gt;&lt;div&gt;&lt;b&gt;Java Developer&lt;/b&gt;, Сбер (2018-2020)&lt;br&gt;- Разработка backend-систем&lt;br&gt;- Участие в code review&lt;br&gt;  &lt;/div&gt;&lt;br&gt;&lt;/div&gt;" style="shape=rect;strokeColor=#ddd;fillColor=#ffffff;align=left;verticalAlign=top;whiteSpace=wrap;html=1;" parent="resume" vertex="1">
          <mxGeometry y="330" width="800" height="190" as="geometry" />
        </mxCell>
        <mxCell id="resume_actions" value="&lt;div style=&#39;padding:15px;text-align:center&#39;&gt;           &lt;button style=&#39;margin-right:15px;background:#28a745;color:white&#39;&gt;Анализировать резюме&lt;/button&gt;           &lt;button style=&#39;background:#007bff;color:white&#39;&gt;Назначить собеседование&lt;/button&gt;         &lt;/div&gt;" style="text;html=1;strokeColor=none;fillColor=#f8f9fa;align=center;verticalAlign=middle;" parent="resume" vertex="1">
          <mxGeometry y="520" width="800" height="70" as="geometry" />
        </mxCell>
        <mxCell id="analysis" value="" style="swimlane;fontStyle=0;align=center;verticalAlign=top;childLayout=stackLayout;horizontal=1;startSize=30;horizontalStack=0;resizeParent=1;resizeParentMax=0;resizeLast=0;collapsible=1;marginBottom=0;" parent="1" vertex="1">
          <mxGeometry x="6470" y="105" width="800" height="580" as="geometry" />
        </mxCell>
        <mxCell id="analysis_header" value="&lt;div style=&quot;font-size:16px;padding:10px&quot;&gt;&lt;b&gt;Анализ резюме: Иван Петров&lt;/b&gt;&lt;/div&gt;" style="text;html=1;strokeColor=none;fillColor=none;align=left;verticalAlign=middle;" parent="analysis" vertex="1">
          <mxGeometry y="30" width="800" height="50" as="geometry" />
        </mxCell>
        <mxCell id="analysis_progress" value="&lt;div style=&#39;padding:20px&#39;&gt;           &lt;b&gt;Соответствие вакансии: 85%&lt;/b&gt;&lt;br&gt;           &lt;div style=&#39;width:100%;height:20px;background:#e9ecef;margin-top:10px&#39;&gt;           &lt;div style=&#39;width:85%;height:100%;background:#28a745&#39;&gt;&lt;/div&gt;           &lt;/div&gt;           &lt;/div&gt;" style="text;html=1;strokeColor=none;fillColor=none;align=left;verticalAlign=middle;" parent="analysis" vertex="1">
          <mxGeometry y="80" width="800" height="80" as="geometry" />
        </mxCell>
        <mxCell id="analysis_content" value="&lt;div style=&#39;padding:20px&#39;&gt;           &lt;div style=&#39;margin-bottom:20px&#39;&gt;           &lt;b&gt;Сильные стороны:&lt;/b&gt;&lt;br&gt;           - 5+ лет коммерческого опыта с Java 8+&lt;br&gt;           - Отличное знание Spring Framework (Boot, MVC, Security)&lt;br&gt;           - Опыт работы с микросервисной архитектурой           &lt;/div&gt;           &lt;div style=&#39;margin-bottom:20px&#39;&gt;           &lt;b&gt;Слабые стороны:&lt;/b&gt;&lt;br&gt;           - Нет production-опыта с Kubernetes&lt;br&gt;           - Ограниченный опыт с NoSQL (только MongoDB)           &lt;/div&gt;           &lt;div&gt;           &lt;b&gt;Рекомендации:&lt;/b&gt;&lt;br&gt;           - Пригласить на техническое собеседование&lt;br&gt;           - Проверить знание Docker и облачных платформ&lt;br&gt;           - Уточнить опыт работы с Kafka           &lt;/div&gt;           &lt;/div&gt;" style="text;html=1;strokeColor=none;fillColor=#ffffff;align=left;verticalAlign=top;" parent="analysis" vertex="1">
          <mxGeometry y="160" width="800" height="350" as="geometry" />
        </mxCell>
        <mxCell id="analysis_actions" value="&lt;div style=&#39;padding:15px;text-align:center&#39;&gt;           &lt;button style=&#39;margin-right:15px&#39;&gt;Сохранить отчёт&lt;/button&gt;           &lt;button style=&#39;background:#6c757d;color:white&#39;&gt;Экспорт в PDF&lt;/button&gt;           &lt;/div&gt;" style="text;html=1;strokeColor=none;fillColor=#f8f9fa;align=center;verticalAlign=middle;" parent="analysis" vertex="1">
          <mxGeometry y="510" width="800" height="70" as="geometry" />
        </mxCell>
        <mxCell id="DRcJ01BgWuFrHOqKFsZg-33" style="edgeStyle=orthogonalEdgeStyle;rounded=0;orthogonalLoop=1;jettySize=auto;html=1;" parent="1" source="vacancy" target="-rGVW6ZsLSptJja4BSsc-21" edge="1">
          <mxGeometry relative="1" as="geometry" />
        </mxCell>
        <mxCell id="vacancy" value="" style="swimlane;fontStyle=0;align=center;verticalAlign=top;childLayout=stackLayout;horizontal=1;startSize=30;horizontalStack=0;resizeParent=1;resizeParentMax=0;resizeLast=0;collapsible=1;marginBottom=0;" parent="1" vertex="1">
          <mxGeometry x="1860" y="100" width="800" height="580" as="geometry" />
        </mxCell>
        <mxCell id="vacancy_header" value="&lt;div style=&quot;font-size:16px;padding:10px&quot;&gt;&lt;b&gt;Создание новой вакансии&lt;/b&gt;&lt;/div&gt;" style="text;html=1;strokeColor=none;fillColor=none;align=left;verticalAlign=middle;" parent="vacancy" vertex="1">
          <mxGeometry y="30" width="800" height="50" as="geometry" />
        </mxCell>
        <mxCell id="DRcJ01BgWuFrHOqKFsZg-30" style="edgeStyle=orthogonalEdgeStyle;rounded=0;orthogonalLoop=1;jettySize=auto;html=1;" parent="vacancy" source="vacancy_form" edge="1">
          <mxGeometry relative="1" as="geometry">
            <mxPoint x="910" y="205" as="targetPoint" />
          </mxGeometry>
        </mxCell>
        <mxCell id="vacancy_form" value="&lt;div style=&quot;padding:20px&quot;&gt;           &lt;div style=&quot;margin-bottom:15px&quot;&gt;           &lt;b&gt;Должность:&lt;/b&gt;&lt;br&gt;           &lt;input type=&quot;text&quot; value=&quot;Senior Java Developer&quot; style=&quot;width: 100%; padding: 8px; border: 1px solid rgb(221, 221, 221);&quot;&gt;           &lt;/div&gt;           &lt;div style=&quot;margin-bottom:15px&quot;&gt;           &lt;b&gt;Отдел:&lt;/b&gt;&lt;br&gt;           &lt;select style=&quot;width: 100%; padding: 8px; border: 1px solid rgb(221, 221, 221);&quot;&gt;           &lt;option&gt;Разработка&lt;/option&gt;           &lt;option&gt;Тестирование&lt;/option&gt;           &lt;option&gt;Аналитика&lt;/option&gt;           &lt;/select&gt;           &lt;/div&gt;           &lt;div style=&quot;margin-bottom:15px&quot;&gt;           &lt;b&gt;Описание:&lt;/b&gt;&lt;br&gt;           &lt;textarea style=&quot;width: 583px; height: 58px; padding: 8px; border: 1px solid rgb(221, 221, 221);&quot;&gt;Требуется опытный Java-разработчик для работы над высоконагруженным сервисом...&lt;/textarea&gt;           &lt;/div&gt;           &lt;/div&gt;" style="text;html=1;strokeColor=none;fillColor=#ffffff;align=left;verticalAlign=top;" parent="vacancy" vertex="1">
          <mxGeometry y="80" width="800" height="250" as="geometry" />
        </mxCell>
        <mxCell id="vacancy_req" value="&lt;div style=&#39;padding:20px;background:#f8f9fa&#39;&gt;           &lt;b&gt;Требования:&lt;/b&gt;&lt;br&gt;&lt;br&gt;           &lt;div style=&#39;margin-bottom:10px&#39;&gt;           1. &lt;input type=&#39;text&#39; value=&#39;Java&#39; style=&#39;width:150px;padding:5px;border:1px solid #ddd&#39;&gt;           Уровень: &lt;select style=&#39;padding:5px;border:1px solid #ddd&#39;&gt;           &lt;option&gt;Junior&lt;/option&gt;           &lt;option selected&gt;Middle&lt;/option&gt;           &lt;option&gt;Senior&lt;/option&gt;           &lt;/select&gt;           &lt;/div&gt;           &lt;button style=&#39;margin-top:10px&#39;&gt;+ Добавить требование&lt;/button&gt;           &lt;/div&gt;" style="text;html=1;strokeColor=#ddd;fillColor=#f8f9fa;align=left;verticalAlign=top;" parent="vacancy" vertex="1">
          <mxGeometry y="330" width="800" height="170" as="geometry" />
        </mxCell>
        <mxCell id="vacancy_actions" value="&lt;div style=&#39;padding:15px;text-align:center&#39;&gt;           &lt;button style=&#39;margin-right:15px;background:#28a745;color:white&#39;&gt;Сохранить вакансию&lt;/button&gt;           &lt;button style=&#39;background:#dc3545;color:white&#39;&gt;Отменить&lt;/button&gt;           &lt;/div&gt;" style="text;html=1;strokeColor=none;fillColor=#f8f9fa;align=center;verticalAlign=middle;" parent="vacancy" vertex="1">
          <mxGeometry y="500" width="800" height="80" as="geometry" />
        </mxCell>
        <mxCell id="-rGVW6ZsLSptJja4BSsc-1" value="" style="group" parent="1" vertex="1" connectable="0">
          <mxGeometry x="3770" y="510" width="410" height="160" as="geometry" />
        </mxCell>
        <mxCell id="-rGVW6ZsLSptJja4BSsc-2" value="" style="group" parent="-rGVW6ZsLSptJja4BSsc-1" vertex="1" connectable="0">
          <mxGeometry width="410" height="160" as="geometry" />
        </mxCell>
        <mxCell id="-rGVW6ZsLSptJja4BSsc-3" value="" style="verticalLabelPosition=bottom;verticalAlign=top;html=1;shape=mxgraph.basic.rect;fillColor2=none;strokeWidth=1;size=20;indent=5;" parent="-rGVW6ZsLSptJja4BSsc-2" vertex="1">
          <mxGeometry width="410" height="160" as="geometry" />
        </mxCell>
        <mxCell id="-rGVW6ZsLSptJja4BSsc-4" value="Icon" style="icon;html=1;image=img/clipart/Gear_128x128.png" parent="-rGVW6ZsLSptJja4BSsc-2" vertex="1">
          <mxGeometry x="20" y="10" width="60" height="60" as="geometry" />
        </mxCell>
        <mxCell id="-rGVW6ZsLSptJja4BSsc-5" value="&lt;div&gt;УВЕДОМЛЕНИЕ:&lt;/div&gt;&lt;div&gt;&lt;br&gt;&lt;/div&gt;Ошибка запроса к БД.&lt;div&gt;Повторите запрос.&lt;/div&gt;" style="text;html=1;align=center;verticalAlign=middle;whiteSpace=wrap;rounded=0;" parent="-rGVW6ZsLSptJja4BSsc-2" vertex="1">
          <mxGeometry x="100" y="30" width="260" height="95" as="geometry" />
        </mxCell>
        <mxCell id="-rGVW6ZsLSptJja4BSsc-6" value="ОК" style="strokeWidth=1;shadow=0;dashed=0;align=center;html=1;shape=mxgraph.mockup.buttons.button;strokeColor=#666666;fontColor=#ffffff;mainText=;buttonStyle=round;fontSize=17;fontStyle=1;fillColor=#008cff;whiteSpace=wrap;" parent="-rGVW6ZsLSptJja4BSsc-2" vertex="1">
          <mxGeometry x="160" y="120" width="120" height="30" as="geometry" />
        </mxCell>
        <mxCell id="-rGVW6ZsLSptJja4BSsc-7" value="" style="group" parent="1" vertex="1" connectable="0">
          <mxGeometry x="100" y="760" width="410" height="160" as="geometry" />
        </mxCell>
        <mxCell id="-rGVW6ZsLSptJja4BSsc-8" value="" style="group" parent="-rGVW6ZsLSptJja4BSsc-7" vertex="1" connectable="0">
          <mxGeometry width="410" height="160" as="geometry" />
        </mxCell>
        <mxCell id="-rGVW6ZsLSptJja4BSsc-9" value="" style="verticalLabelPosition=bottom;verticalAlign=top;html=1;shape=mxgraph.basic.rect;fillColor2=none;strokeWidth=1;size=20;indent=5;" parent="-rGVW6ZsLSptJja4BSsc-8" vertex="1">
          <mxGeometry width="410" height="160" as="geometry" />
        </mxCell>
        <mxCell id="-rGVW6ZsLSptJja4BSsc-10" value="Icon" style="icon;html=1;image=img/clipart/Gear_128x128.png" parent="-rGVW6ZsLSptJja4BSsc-8" vertex="1">
          <mxGeometry x="20" y="10" width="60" height="60" as="geometry" />
        </mxCell>
        <mxCell id="-rGVW6ZsLSptJja4BSsc-11" value="&lt;div&gt;ОШИБКА:&lt;/div&gt;&lt;div&gt;&lt;br&gt;&lt;/div&gt;СИСТЕМА НЕ ДОСТУПНА" style="text;html=1;align=center;verticalAlign=middle;whiteSpace=wrap;rounded=0;" parent="-rGVW6ZsLSptJja4BSsc-8" vertex="1">
          <mxGeometry x="100" y="30" width="260" height="95" as="geometry" />
        </mxCell>
        <mxCell id="-rGVW6ZsLSptJja4BSsc-12" value="Выход" style="strokeWidth=1;shadow=0;dashed=0;align=center;html=1;shape=mxgraph.mockup.buttons.button;strokeColor=#666666;fontColor=#ffffff;mainText=;buttonStyle=round;fontSize=17;fontStyle=1;fillColor=#008cff;whiteSpace=wrap;" parent="-rGVW6ZsLSptJja4BSsc-8" vertex="1">
          <mxGeometry x="170" y="120" width="120" height="30" as="geometry" />
        </mxCell>
        <mxCell id="-rGVW6ZsLSptJja4BSsc-13" value="" style="group" parent="1" vertex="1" connectable="0">
          <mxGeometry x="3770" y="940" width="410" height="160" as="geometry" />
        </mxCell>
        <mxCell id="-rGVW6ZsLSptJja4BSsc-14" value="" style="group" parent="-rGVW6ZsLSptJja4BSsc-13" vertex="1" connectable="0">
          <mxGeometry width="410" height="160" as="geometry" />
        </mxCell>
        <mxCell id="-rGVW6ZsLSptJja4BSsc-15" value="" style="verticalLabelPosition=bottom;verticalAlign=top;html=1;shape=mxgraph.basic.rect;fillColor2=none;strokeWidth=1;size=20;indent=5;" parent="-rGVW6ZsLSptJja4BSsc-14" vertex="1">
          <mxGeometry width="410" height="160" as="geometry" />
        </mxCell>
        <mxCell id="-rGVW6ZsLSptJja4BSsc-16" value="Icon" style="icon;html=1;image=img/clipart/Gear_128x128.png" parent="-rGVW6ZsLSptJja4BSsc-14" vertex="1">
          <mxGeometry x="20" y="10" width="60" height="60" as="geometry" />
        </mxCell>
        <mxCell id="-rGVW6ZsLSptJja4BSsc-17" value="&lt;div&gt;ОШИБКА:&lt;/div&gt;&lt;div&gt;&lt;br&gt;&lt;/div&gt;БАЗА ДАННЫХ НЕ ДОСТУПНА&lt;div&gt;&lt;br&gt;&lt;div&gt;ПОВТОРИТЕ ПОЖАЛУЙСТА ЗАПРОС ПОЗДНЕЕ&lt;/div&gt;&lt;/div&gt;" style="text;html=1;align=center;verticalAlign=middle;whiteSpace=wrap;rounded=0;" parent="-rGVW6ZsLSptJja4BSsc-14" vertex="1">
          <mxGeometry x="100" y="30" width="290" height="95" as="geometry" />
        </mxCell>
        <mxCell id="-rGVW6ZsLSptJja4BSsc-18" value="Выход" style="strokeWidth=1;shadow=0;dashed=0;align=center;html=1;shape=mxgraph.mockup.buttons.button;strokeColor=#666666;fontColor=#ffffff;mainText=;buttonStyle=round;fontSize=17;fontStyle=1;fillColor=#008cff;whiteSpace=wrap;" parent="-rGVW6ZsLSptJja4BSsc-14" vertex="1">
          <mxGeometry x="185" y="120" width="120" height="30" as="geometry" />
        </mxCell>
        <mxCell id="-rGVW6ZsLSptJja4BSsc-19" value="" style="group" parent="1" vertex="1" connectable="0">
          <mxGeometry x="2055" y="770" width="410" height="160" as="geometry" />
        </mxCell>
        <mxCell id="-rGVW6ZsLSptJja4BSsc-20" value="" style="group" parent="-rGVW6ZsLSptJja4BSsc-19" vertex="1" connectable="0">
          <mxGeometry width="410" height="160" as="geometry" />
        </mxCell>
        <mxCell id="-rGVW6ZsLSptJja4BSsc-21" value="" style="verticalLabelPosition=bottom;verticalAlign=top;html=1;shape=mxgraph.basic.rect;fillColor2=none;strokeWidth=1;size=20;indent=5;" parent="-rGVW6ZsLSptJja4BSsc-20" vertex="1">
          <mxGeometry width="410" height="160" as="geometry" />
        </mxCell>
        <mxCell id="-rGVW6ZsLSptJja4BSsc-22" value="Icon" style="icon;html=1;image=img/clipart/Gear_128x128.png" parent="-rGVW6ZsLSptJja4BSsc-20" vertex="1">
          <mxGeometry x="20" y="10" width="60" height="60" as="geometry" />
        </mxCell>
        <mxCell id="-rGVW6ZsLSptJja4BSsc-23" value="&lt;div&gt;УВЕДОМЛЕНИЕ:&lt;/div&gt;&lt;div&gt;&lt;br&gt;&lt;/div&gt;Вы не ввели критерии, система будет использовать критерии поиска по умолчанию&lt;div&gt;&lt;div&gt;&lt;br&gt;&lt;/div&gt;&lt;/div&gt;" style="text;html=1;align=center;verticalAlign=middle;whiteSpace=wrap;rounded=0;" parent="-rGVW6ZsLSptJja4BSsc-20" vertex="1">
          <mxGeometry x="100" y="30" width="290" height="95" as="geometry" />
        </mxCell>
        <mxCell id="-rGVW6ZsLSptJja4BSsc-24" value="ОК" style="strokeWidth=1;shadow=0;dashed=0;align=center;html=1;shape=mxgraph.mockup.buttons.button;strokeColor=#666666;fontColor=#ffffff;mainText=;buttonStyle=round;fontSize=17;fontStyle=1;fillColor=#008cff;whiteSpace=wrap;" parent="-rGVW6ZsLSptJja4BSsc-20" vertex="1">
          <mxGeometry x="190" y="120" width="120" height="30" as="geometry" />
        </mxCell>
        <mxCell id="-rGVW6ZsLSptJja4BSsc-25" value="" style="group" parent="1" vertex="1" connectable="0">
          <mxGeometry x="3770" y="720" width="410" height="160" as="geometry" />
        </mxCell>
        <mxCell id="-rGVW6ZsLSptJja4BSsc-26" value="" style="group" parent="-rGVW6ZsLSptJja4BSsc-25" vertex="1" connectable="0">
          <mxGeometry width="410" height="160" as="geometry" />
        </mxCell>
        <mxCell id="-rGVW6ZsLSptJja4BSsc-27" value="" style="verticalLabelPosition=bottom;verticalAlign=top;html=1;shape=mxgraph.basic.rect;fillColor2=none;strokeWidth=1;size=20;indent=5;" parent="-rGVW6ZsLSptJja4BSsc-26" vertex="1">
          <mxGeometry width="410" height="160" as="geometry" />
        </mxCell>
        <mxCell id="-rGVW6ZsLSptJja4BSsc-28" value="Icon" style="icon;html=1;image=img/clipart/Gear_128x128.png" parent="-rGVW6ZsLSptJja4BSsc-26" vertex="1">
          <mxGeometry x="20" y="10" width="60" height="60" as="geometry" />
        </mxCell>
        <mxCell id="-rGVW6ZsLSptJja4BSsc-29" value="&lt;div&gt;УВЕДОМЛЕНИЕ:&lt;/div&gt;&lt;div&gt;&lt;br&gt;&lt;/div&gt;AI не смог выполнить анализ резюме, проведите анализ резюме вручную" style="text;html=1;align=center;verticalAlign=middle;whiteSpace=wrap;rounded=0;" parent="-rGVW6ZsLSptJja4BSsc-26" vertex="1">
          <mxGeometry x="100" y="30" width="260" height="95" as="geometry" />
        </mxCell>
        <mxCell id="-rGVW6ZsLSptJja4BSsc-30" value="ОК" style="strokeWidth=1;shadow=0;dashed=0;align=center;html=1;shape=mxgraph.mockup.buttons.button;strokeColor=#666666;fontColor=#ffffff;mainText=;buttonStyle=round;fontSize=17;fontStyle=1;fillColor=#008cff;whiteSpace=wrap;" parent="-rGVW6ZsLSptJja4BSsc-26" vertex="1">
          <mxGeometry x="160" y="120" width="120" height="30" as="geometry" />
        </mxCell>
        <mxCell id="-rGVW6ZsLSptJja4BSsc-31" value="" style="group" parent="1" vertex="1" connectable="0">
          <mxGeometry x="4180" y="100" width="410" height="160" as="geometry" />
        </mxCell>
        <mxCell id="-rGVW6ZsLSptJja4BSsc-32" value="" style="verticalLabelPosition=bottom;verticalAlign=top;html=1;shape=mxgraph.basic.rect;fillColor2=none;strokeWidth=1;size=20;indent=5;" parent="-rGVW6ZsLSptJja4BSsc-31" vertex="1">
          <mxGeometry width="410" height="160" as="geometry" />
        </mxCell>
        <mxCell id="-rGVW6ZsLSptJja4BSsc-33" value="Icon" style="icon;html=1;image=img/clipart/Gear_128x128.png" parent="-rGVW6ZsLSptJja4BSsc-31" vertex="1">
          <mxGeometry x="20" y="10" width="60" height="60" as="geometry" />
        </mxCell>
        <mxCell id="-rGVW6ZsLSptJja4BSsc-34" value="&lt;div&gt;УВЕДОМЛЕНИЕ:&lt;/div&gt;&lt;div&gt;&lt;br&gt;&lt;/div&gt;Анализ резюме завершен.&amp;nbsp;&lt;div&gt;Вы можете посмотреть результат&lt;div&gt;&lt;div&gt;&lt;br&gt;&lt;/div&gt;&lt;/div&gt;&lt;/div&gt;" style="text;html=1;align=center;verticalAlign=middle;whiteSpace=wrap;rounded=0;" parent="-rGVW6ZsLSptJja4BSsc-31" vertex="1">
          <mxGeometry x="100" y="30" width="290" height="95" as="geometry" />
        </mxCell>
        <mxCell id="-rGVW6ZsLSptJja4BSsc-35" value="ОК" style="strokeWidth=1;shadow=0;dashed=0;align=center;html=1;shape=mxgraph.mockup.buttons.button;strokeColor=#666666;fontColor=#ffffff;mainText=;buttonStyle=round;fontSize=17;fontStyle=1;fillColor=#008cff;whiteSpace=wrap;" parent="-rGVW6ZsLSptJja4BSsc-31" vertex="1">
          <mxGeometry x="190" y="120" width="120" height="30" as="geometry" />
        </mxCell>
        <mxCell id="DRcJ01BgWuFrHOqKFsZg-1" value="" style="group" parent="1" vertex="1" connectable="0">
          <mxGeometry x="970" y="100" width="800" height="580" as="geometry" />
        </mxCell>
        <mxCell id="vacancies" value="" style="swimlane;fontStyle=0;align=center;verticalAlign=top;childLayout=stackLayout;horizontal=1;startSize=30;horizontalStack=0;resizeParent=1;resizeParentMax=0;resizeLast=0;collapsible=1;marginBottom=0;container=0;" parent="DRcJ01BgWuFrHOqKFsZg-1" vertex="1">
          <mxGeometry width="800" height="580" as="geometry" />
        </mxCell>
        <mxCell id="vacancies_header" value="&lt;div style=&quot;font-size:16px;padding:10px;display:flex;justify-content:space-between;align-items:center&quot;&gt;           &lt;b&gt;Активные вакансии&amp;nbsp; &amp;nbsp; &amp;nbsp; &amp;nbsp; &amp;nbsp; &amp;nbsp; &amp;nbsp; &amp;nbsp; &amp;nbsp; &amp;nbsp; &amp;nbsp; &amp;nbsp; &amp;nbsp; &amp;nbsp; &amp;nbsp; &amp;nbsp; &amp;nbsp; &amp;nbsp; &amp;nbsp; &amp;nbsp; &amp;nbsp; &amp;nbsp; &amp;nbsp; &amp;nbsp; &amp;nbsp; &amp;nbsp; &amp;nbsp; &amp;nbsp; &amp;nbsp; &amp;nbsp; &amp;nbsp; &amp;nbsp; &amp;nbsp; &amp;nbsp; &amp;nbsp; &amp;nbsp; &amp;nbsp; &amp;nbsp; &amp;nbsp; &amp;nbsp; &amp;nbsp; &amp;nbsp; &amp;nbsp; &amp;nbsp; &amp;nbsp; &amp;nbsp; &amp;nbsp; &amp;nbsp; &amp;nbsp;&lt;/b&gt;           &lt;button style=&quot;background: rgb(40, 167, 69); color: white; padding: 5px 10px;&quot;&gt;Создать новую вакансию&lt;/button&gt;         &lt;/div&gt;" style="text;html=1;strokeColor=none;fillColor=none;align=left;verticalAlign=middle;" parent="DRcJ01BgWuFrHOqKFsZg-1" vertex="1">
          <mxGeometry y="30" width="800" height="50" as="geometry" />
        </mxCell>
        <mxCell id="vacancies_table" value="&lt;table style=&#39;width:100%;border-collapse:collapse;font-size:14px&#39;&gt;           &lt;tr style=&#39;background:#f8f9fa&#39;&gt;             &lt;th style=&#39;padding:10px;text-align:left;border-bottom:1px solid #ddd&#39;&gt;Должность&lt;/th&gt;             &lt;th style=&#39;padding:10px;text-align:left;border-bottom:1px solid #ddd&#39;&gt;Отдел&lt;/th&gt;             &lt;th style=&#39;padding:10px;text-align:left;border-bottom:1px solid #ddd&#39;&gt;Дата создания&lt;/th&gt;             &lt;th style=&#39;padding:10px;text-align:left;border-bottom:1px solid #ddd&#39;&gt;Кандидатов&lt;/th&gt;             &lt;th style=&#39;padding:10px;text-align:left;border-bottom:1px solid #ddd&#39;&gt;Действия&lt;/th&gt;           &lt;/tr&gt;           &lt;tr&gt;             &lt;td style=&#39;padding:10px;border-bottom:1px solid #eee&#39;&gt;Senior Java Developer&lt;/td&gt;             &lt;td style=&#39;padding:10px;border-bottom:1px solid #eee&#39;&gt;Разработка&lt;/td&gt;             &lt;td style=&#39;padding:10px;border-bottom:1px solid #eee&#39;&gt;12.05.2023&lt;/td&gt;             &lt;td style=&#39;padding:10px;border-bottom:1px solid #eee&#39;&gt;24&lt;/td&gt;             &lt;td style=&#39;padding:10px;border-bottom:1px solid #eee&#39;&gt;               &lt;button style=&#39;padding:5px 10px;margin-right:5px&#39;&gt;Просмотр&lt;/button&gt;               &lt;button style=&#39;padding:5px 10px&#39;&gt;Закрыть&lt;/button&gt;             &lt;/td&gt;           &lt;/tr&gt;           &lt;tr&gt;             &lt;td style=&#39;padding:10px;border-bottom:1px solid #eee&#39;&gt;Frontend Engineer&lt;/td&gt;             &lt;td style=&#39;padding:10px;border-bottom:1px solid #eee&#39;&gt;Разработка&lt;/td&gt;             &lt;td style=&#39;padding:10px;border-bottom:1px solid #eee&#39;&gt;11.05.2023&lt;/td&gt;             &lt;td style=&#39;padding:10px;border-bottom:1px solid #eee&#39;&gt;18&lt;/td&gt;             &lt;td style=&#39;padding:10px;border-bottom:1px solid #eee&#39;&gt;               &lt;button style=&#39;padding:5px 10px;margin-right:5px&#39;&gt;Просмотр&lt;/button&gt;               &lt;button style=&#39;padding:5px 10px&#39;&gt;Закрыть&lt;/button&gt;             &lt;/td&gt;           &lt;/tr&gt;           &lt;tr&gt;             &lt;td style=&#39;padding:10px;border-bottom:1px solid #eee&#39;&gt;QA Engineer&lt;/td&gt;             &lt;td style=&#39;padding:10px;border-bottom:1px solid #eee&#39;&gt;Тестирование&lt;/td&gt;             &lt;td style=&#39;padding:10px;border-bottom:1px solid #eee&#39;&gt;05.05.2023&lt;/td&gt;             &lt;td style=&#39;padding:10px;border-bottom:1px solid #eee&#39;&gt;15&lt;/td&gt;             &lt;td style=&#39;padding:10px;border-bottom:1px solid #eee&#39;&gt;               &lt;button style=&#39;padding:5px 10px;margin-right:5px&#39;&gt;Просмотр&lt;/button&gt;               &lt;button style=&#39;padding:5px 10px&#39;&gt;Закрыть&lt;/button&gt;             &lt;/td&gt;           &lt;/tr&gt;         &lt;/table&gt;" style="text;html=1;strokeColor=none;fillColor=none;align=left;verticalAlign=top;" parent="DRcJ01BgWuFrHOqKFsZg-1" vertex="1">
          <mxGeometry y="80" width="800" height="420" as="geometry" />
        </mxCell>
        <mxCell id="vacancies_actions" value="&lt;div style=&#39;padding:15px;text-align:center&#39;&gt;           &lt;button style=&#39;margin-right:10px&#39;&gt;Экспорт в CSV&lt;/button&gt;           &lt;button&gt;Архивные вакансии&lt;/button&gt;         &lt;/div&gt;" style="text;html=1;strokeColor=none;fillColor=#f8f9fa;align=center;verticalAlign=middle;" parent="DRcJ01BgWuFrHOqKFsZg-1" vertex="1">
          <mxGeometry y="500" width="800" height="80" as="geometry" />
        </mxCell>
        <mxCell id="DRcJ01BgWuFrHOqKFsZg-3" value="" style="group" parent="1" vertex="1" connectable="0">
          <mxGeometry x="-420" y="100" width="410" height="160" as="geometry" />
        </mxCell>
        <mxCell id="DRcJ01BgWuFrHOqKFsZg-4" value="" style="group" parent="DRcJ01BgWuFrHOqKFsZg-3" vertex="1" connectable="0">
          <mxGeometry width="410" height="160" as="geometry" />
        </mxCell>
        <mxCell id="DRcJ01BgWuFrHOqKFsZg-5" value="" style="verticalLabelPosition=bottom;verticalAlign=top;html=1;shape=mxgraph.basic.rect;fillColor2=none;strokeWidth=1;size=20;indent=5;" parent="DRcJ01BgWuFrHOqKFsZg-4" vertex="1">
          <mxGeometry width="410" height="160" as="geometry" />
        </mxCell>
        <mxCell id="DRcJ01BgWuFrHOqKFsZg-7" value="СИСТЕМА ПОДБОРА ПЕРСОНАЛА" style="text;html=1;align=center;verticalAlign=middle;whiteSpace=wrap;rounded=0;" parent="DRcJ01BgWuFrHOqKFsZg-4" vertex="1">
          <mxGeometry x="100" y="30" width="260" height="95" as="geometry" />
        </mxCell>
        <mxCell id="DRcJ01BgWuFrHOqKFsZg-8" value="СТАРТ" style="strokeWidth=1;shadow=0;dashed=0;align=center;html=1;shape=mxgraph.mockup.buttons.button;strokeColor=#666666;fontColor=#ffffff;mainText=;buttonStyle=round;fontSize=17;fontStyle=1;fillColor=#008cff;whiteSpace=wrap;" parent="DRcJ01BgWuFrHOqKFsZg-4" vertex="1">
          <mxGeometry x="170" y="120" width="120" height="30" as="geometry" />
        </mxCell>
        <mxCell id="DRcJ01BgWuFrHOqKFsZg-13" value="" style="verticalLabelPosition=bottom;verticalAlign=top;html=1;shape=mxgraph.basic.star;fillColor=#FFFF66;" parent="DRcJ01BgWuFrHOqKFsZg-4" vertex="1">
          <mxGeometry x="20" y="20" width="100" height="95" as="geometry" />
        </mxCell>
        <mxCell id="DRcJ01BgWuFrHOqKFsZg-14" value="" style="group" parent="1" vertex="1" connectable="0">
          <mxGeometry x="2770" y="100" width="800" height="580" as="geometry" />
        </mxCell>
        <mxCell id="DRcJ01BgWuFrHOqKFsZg-15" value="" style="swimlane;fontStyle=0;align=center;verticalAlign=top;childLayout=stackLayout;horizontal=1;startSize=30;horizontalStack=0;resizeParent=1;resizeParentMax=0;resizeLast=0;collapsible=1;marginBottom=0;container=0;" parent="DRcJ01BgWuFrHOqKFsZg-14" vertex="1">
          <mxGeometry width="800" height="580" as="geometry" />
        </mxCell>
        <mxCell id="DRcJ01BgWuFrHOqKFsZg-16" value="&lt;div style=&quot;font-size:16px;padding:10px;display:flex;justify-content:space-between;align-items:center&quot;&gt;           &lt;b&gt;Активные вакансии&amp;nbsp; &amp;nbsp; &amp;nbsp; &amp;nbsp; &amp;nbsp; &amp;nbsp; &amp;nbsp; &amp;nbsp; &amp;nbsp; &amp;nbsp; &amp;nbsp; &amp;nbsp; &amp;nbsp; &amp;nbsp; &amp;nbsp; &amp;nbsp; &amp;nbsp; &amp;nbsp; &amp;nbsp; &amp;nbsp; &amp;nbsp; &amp;nbsp; &amp;nbsp; &amp;nbsp; &amp;nbsp; &amp;nbsp; &amp;nbsp; &amp;nbsp; &amp;nbsp; &amp;nbsp; &amp;nbsp; &amp;nbsp; &amp;nbsp; &amp;nbsp; &amp;nbsp; &amp;nbsp; &amp;nbsp; &amp;nbsp; &amp;nbsp; &amp;nbsp; &amp;nbsp; &amp;nbsp; &amp;nbsp; &amp;nbsp; &amp;nbsp; &amp;nbsp; &amp;nbsp; &amp;nbsp; &amp;nbsp;&lt;/b&gt;           &lt;button style=&quot;background: rgb(40, 167, 69); color: white; padding: 5px 10px;&quot;&gt;Создать новую вакансию&lt;/button&gt;         &lt;/div&gt;" style="text;html=1;strokeColor=none;fillColor=none;align=left;verticalAlign=middle;" parent="DRcJ01BgWuFrHOqKFsZg-14" vertex="1">
          <mxGeometry y="30" width="800" height="50" as="geometry" />
        </mxCell>
        <mxCell id="DRcJ01BgWuFrHOqKFsZg-17" value="&lt;table style=&quot;width:100%;border-collapse:collapse;font-size:14px&quot;&gt;           &lt;tbody&gt;&lt;tr style=&quot;background: rgb(248, 249, 250);&quot;&gt;             &lt;th style=&quot;padding: 10px; text-align: left; border-bottom: 1px solid rgb(221, 221, 221);&quot;&gt;Должность&lt;/th&gt;             &lt;th style=&quot;padding: 10px; text-align: left; border-bottom: 1px solid rgb(221, 221, 221);&quot;&gt;Отдел&lt;/th&gt;             &lt;th style=&quot;padding: 10px; text-align: left; border-bottom: 1px solid rgb(221, 221, 221);&quot;&gt;Дата создания&lt;/th&gt;             &lt;th style=&quot;padding: 10px; text-align: left; border-bottom: 1px solid rgb(221, 221, 221);&quot;&gt;Кандидатов&lt;/th&gt;             &lt;th style=&quot;padding: 10px; text-align: left; border-bottom: 1px solid rgb(221, 221, 221);&quot;&gt;Действия&lt;/th&gt;           &lt;/tr&gt;           &lt;tr&gt;             &lt;td style=&quot;padding: 10px; border-bottom: 1px solid rgb(238, 238, 238);&quot;&gt;Senior Java Developer&lt;/td&gt;             &lt;td style=&quot;padding: 10px; border-bottom: 1px solid rgb(238, 238, 238);&quot;&gt;Разработка&lt;/td&gt;             &lt;td style=&quot;padding: 10px; border-bottom: 1px solid rgb(238, 238, 238);&quot;&gt;12.05.2023&lt;/td&gt;             &lt;td style=&quot;padding: 10px; border-bottom: 1px solid rgb(238, 238, 238);&quot;&gt;24&lt;/td&gt;             &lt;td style=&quot;padding: 10px; border-bottom: 1px solid rgb(238, 238, 238);&quot;&gt;               &lt;button style=&quot;padding:5px 10px;margin-right:5px&quot;&gt;Просмотр&lt;/button&gt; &lt;button style=&quot;padding:5px 10px&quot;&gt;&amp;nbsp;Подбор специалиста&lt;/button&gt;&lt;/td&gt;           &lt;/tr&gt;           &lt;tr&gt;             &lt;td style=&quot;padding: 10px; border-bottom: 1px solid rgb(238, 238, 238);&quot;&gt;Frontend Engineer&lt;/td&gt;             &lt;td style=&quot;padding: 10px; border-bottom: 1px solid rgb(238, 238, 238);&quot;&gt;Разработка&lt;/td&gt;             &lt;td style=&quot;padding: 10px; border-bottom: 1px solid rgb(238, 238, 238);&quot;&gt;11.05.2023&lt;/td&gt;             &lt;td style=&quot;padding: 10px; border-bottom: 1px solid rgb(238, 238, 238);&quot;&gt;18&lt;/td&gt;             &lt;td style=&quot;padding: 10px; border-bottom: 1px solid rgb(238, 238, 238);&quot;&gt;               &lt;button style=&quot;padding:5px 10px;margin-right:5px&quot;&gt;Просмотр&lt;/button&gt; &lt;button style=&quot;padding:5px 10px&quot;&gt;&lt;span style=&quot;font-size: 13.3333px;&quot;&gt;Подбор специалиста&lt;/span&gt;&lt;br&gt;&lt;/button&gt;&lt;/td&gt;           &lt;/tr&gt;           &lt;tr&gt;             &lt;td style=&quot;padding: 10px; border-bottom: 1px solid rgb(238, 238, 238);&quot;&gt;QA Engineer&lt;/td&gt;             &lt;td style=&quot;padding: 10px; border-bottom: 1px solid rgb(238, 238, 238);&quot;&gt;Тестирование&lt;/td&gt;             &lt;td style=&quot;padding: 10px; border-bottom: 1px solid rgb(238, 238, 238);&quot;&gt;05.05.2023&lt;/td&gt;             &lt;td style=&quot;padding: 10px; border-bottom: 1px solid rgb(238, 238, 238);&quot;&gt;15&lt;/td&gt;             &lt;td style=&quot;padding: 10px; border-bottom: 1px solid rgb(238, 238, 238);&quot;&gt;               &lt;button style=&quot;padding:5px 10px;margin-right:5px&quot;&gt;Просмотр&lt;/button&gt; &lt;button style=&quot;padding:5px 10px&quot;&gt;&lt;span style=&quot;font-size: 13.3333px; background-color: rgb(236, 236, 236);&quot;&gt;Подбор специалиста&lt;/span&gt;&lt;br&gt;&lt;/button&gt;&lt;/td&gt;           &lt;/tr&gt;         &lt;/tbody&gt;&lt;/table&gt;&lt;table style=&quot;width: 681.812px; border-collapse: collapse; font-size: 14px;&quot;&gt;&lt;tbody&gt;&lt;tr&gt;&lt;td style=&quot;padding: 10px; border-bottom: 1px solid rgb(238, 238, 238);&quot;&gt;&lt;b&gt;Senior Java Develope&amp;nbsp;&amp;nbsp;&lt;/b&gt;&lt;/td&gt;&lt;td style=&quot;padding: 10px; border-bottom: 1px solid rgb(238, 238, 238);&quot;&gt;&lt;b&gt;&amp;nbsp;Разработка&lt;/b&gt;&lt;/td&gt;&lt;td style=&quot;padding: 10px; border-bottom: 1px solid rgb(238, 238, 238);&quot;&gt;&lt;b&gt;05.05.2023&lt;/b&gt;&lt;/td&gt;&lt;td style=&quot;padding: 10px; border-bottom: 1px solid rgb(238, 238, 238);&quot;&gt;&lt;b&gt;&amp;nbsp; &amp;nbsp; &amp;nbsp; &amp;nbsp;15&amp;nbsp; &amp;nbsp; &amp;nbsp; &amp;nbsp; &amp;nbsp; &amp;nbsp; &amp;nbsp; &amp;nbsp; &amp;nbsp;&lt;/b&gt;&lt;/td&gt;&lt;td style=&quot;padding: 10px; border-bottom: 1px solid rgb(238, 238, 238);&quot;&gt;&lt;b&gt;&lt;button style=&quot;color: rgb(63, 63, 63); padding: 5px 10px; margin-right: 5px;&quot;&gt;Просмотр&lt;/button&gt;&amp;nbsp;&lt;button style=&quot;color: rgb(63, 63, 63); background-color: rgb(226, 226, 226); padding: 5px 10px; opacity: 1;&quot;&gt;Подбор специалиста&lt;/button&gt;&lt;/b&gt;&lt;/td&gt;&lt;/tr&gt;&lt;/tbody&gt;&lt;/table&gt;" style="text;html=1;strokeColor=none;fillColor=none;align=left;verticalAlign=top;" parent="DRcJ01BgWuFrHOqKFsZg-14" vertex="1">
          <mxGeometry x="10" y="80" width="790" height="420" as="geometry" />
        </mxCell>
        <mxCell id="DRcJ01BgWuFrHOqKFsZg-18" value="&lt;div style=&#39;padding:15px;text-align:center&#39;&gt;           &lt;button style=&#39;margin-right:10px&#39;&gt;Экспорт в CSV&lt;/button&gt;           &lt;button&gt;Архивные вакансии&lt;/button&gt;         &lt;/div&gt;" style="text;html=1;strokeColor=none;fillColor=#f8f9fa;align=center;verticalAlign=middle;" parent="DRcJ01BgWuFrHOqKFsZg-14" vertex="1">
          <mxGeometry y="500" width="800" height="80" as="geometry" />
        </mxCell>
        <mxCell id="DRcJ01BgWuFrHOqKFsZg-19" style="edgeStyle=orthogonalEdgeStyle;rounded=0;orthogonalLoop=1;jettySize=auto;html=1;" parent="1" source="DRcJ01BgWuFrHOqKFsZg-5" target="main_nav" edge="1">
          <mxGeometry relative="1" as="geometry">
            <Array as="points">
              <mxPoint x="60" y="180" />
              <mxPoint x="60" y="415" />
            </Array>
          </mxGeometry>
        </mxCell>
        <mxCell id="DRcJ01BgWuFrHOqKFsZg-20" style="edgeStyle=orthogonalEdgeStyle;rounded=0;orthogonalLoop=1;jettySize=auto;html=1;entryX=-0.001;entryY=0.544;entryDx=0;entryDy=0;entryPerimeter=0;" parent="1" source="DRcJ01BgWuFrHOqKFsZg-5" target="-rGVW6ZsLSptJja4BSsc-9" edge="1">
          <mxGeometry relative="1" as="geometry">
            <Array as="points">
              <mxPoint x="30" y="220" />
              <mxPoint x="30" y="847" />
            </Array>
          </mxGeometry>
        </mxCell>
        <mxCell id="DRcJ01BgWuFrHOqKFsZg-23" style="edgeStyle=orthogonalEdgeStyle;rounded=0;orthogonalLoop=1;jettySize=auto;html=1;entryX=0.002;entryY=0.556;entryDx=0;entryDy=0;entryPerimeter=0;" parent="1" source="dashboard_content" target="vacancies_table" edge="1">
          <mxGeometry relative="1" as="geometry" />
        </mxCell>
        <mxCell id="DRcJ01BgWuFrHOqKFsZg-26" style="edgeStyle=orthogonalEdgeStyle;rounded=0;orthogonalLoop=1;jettySize=auto;html=1;entryX=0;entryY=0.5;entryDx=0;entryDy=0;" parent="1" source="vacancies_table" target="vacancy" edge="1">
          <mxGeometry relative="1" as="geometry" />
        </mxCell>
        <mxCell id="DRcJ01BgWuFrHOqKFsZg-31" style="edgeStyle=orthogonalEdgeStyle;rounded=0;orthogonalLoop=1;jettySize=auto;html=1;entryX=0.58;entryY=0.023;entryDx=0;entryDy=0;entryPerimeter=0;exitX=1.004;exitY=0.386;exitDx=0;exitDy=0;exitPerimeter=0;" parent="1" source="vacancies_table" target="-rGVW6ZsLSptJja4BSsc-32" edge="1">
          <mxGeometry relative="1" as="geometry">
            <Array as="points">
              <mxPoint x="1820" y="342" />
              <mxPoint x="1820" y="30" />
              <mxPoint x="4418" y="30" />
            </Array>
          </mxGeometry>
        </mxCell>
        <mxCell id="DRcJ01BgWuFrHOqKFsZg-34" style="edgeStyle=orthogonalEdgeStyle;rounded=0;orthogonalLoop=1;jettySize=auto;html=1;entryX=0;entryY=0.5;entryDx=0;entryDy=0;" parent="1" target="DRcJ01BgWuFrHOqKFsZg-15" edge="1">
          <mxGeometry relative="1" as="geometry">
            <mxPoint x="2470" y="848" as="sourcePoint" />
            <Array as="points">
              <mxPoint x="2730" y="848" />
              <mxPoint x="2730" y="390" />
            </Array>
          </mxGeometry>
        </mxCell>
        <mxCell id="DRcJ01BgWuFrHOqKFsZg-35" style="edgeStyle=orthogonalEdgeStyle;rounded=0;orthogonalLoop=1;jettySize=auto;html=1;entryX=0.003;entryY=0.523;entryDx=0;entryDy=0;entryPerimeter=0;" parent="1" source="DRcJ01BgWuFrHOqKFsZg-17" target="-rGVW6ZsLSptJja4BSsc-27" edge="1">
          <mxGeometry relative="1" as="geometry">
            <Array as="points">
              <mxPoint x="3660" y="440" />
              <mxPoint x="3660" y="804" />
            </Array>
          </mxGeometry>
        </mxCell>
        <mxCell id="DRcJ01BgWuFrHOqKFsZg-36" style="edgeStyle=orthogonalEdgeStyle;rounded=0;orthogonalLoop=1;jettySize=auto;html=1;entryX=0.007;entryY=0.575;entryDx=0;entryDy=0;entryPerimeter=0;" parent="1" source="DRcJ01BgWuFrHOqKFsZg-17" target="-rGVW6ZsLSptJja4BSsc-15" edge="1">
          <mxGeometry relative="1" as="geometry">
            <Array as="points">
              <mxPoint x="3630" y="490" />
              <mxPoint x="3630" y="1012" />
            </Array>
          </mxGeometry>
        </mxCell>
        <mxCell id="DRcJ01BgWuFrHOqKFsZg-37" style="edgeStyle=orthogonalEdgeStyle;rounded=0;orthogonalLoop=1;jettySize=auto;html=1;entryX=-0.005;entryY=0.471;entryDx=0;entryDy=0;entryPerimeter=0;" parent="1" source="DRcJ01BgWuFrHOqKFsZg-17" target="-rGVW6ZsLSptJja4BSsc-3" edge="1">
          <mxGeometry relative="1" as="geometry" />
        </mxCell>
        <mxCell id="DRcJ01BgWuFrHOqKFsZg-38" style="edgeStyle=orthogonalEdgeStyle;rounded=0;orthogonalLoop=1;jettySize=auto;html=1;exitX=1.006;exitY=0.029;exitDx=0;exitDy=0;exitPerimeter=0;" parent="1" source="DRcJ01BgWuFrHOqKFsZg-17" edge="1">
          <mxGeometry relative="1" as="geometry">
            <mxPoint x="4180" y="192" as="targetPoint" />
          </mxGeometry>
        </mxCell>
        <mxCell id="DRcJ01BgWuFrHOqKFsZg-39" style="edgeStyle=orthogonalEdgeStyle;rounded=0;orthogonalLoop=1;jettySize=auto;html=1;entryX=0;entryY=0;entryDx=0;entryDy=0;" parent="1" target="candidates_table" edge="1">
          <mxGeometry relative="1" as="geometry">
            <mxPoint x="4590" y="180" as="sourcePoint" />
            <Array as="points">
              <mxPoint x="4590" y="178" />
              <mxPoint x="4620" y="178" />
              <mxPoint x="4620" y="180" />
            </Array>
          </mxGeometry>
        </mxCell>
        <mxCell id="DRcJ01BgWuFrHOqKFsZg-41" style="edgeStyle=orthogonalEdgeStyle;rounded=0;orthogonalLoop=1;jettySize=auto;html=1;entryX=0;entryY=0.401;entryDx=0;entryDy=0;entryPerimeter=0;" parent="1" source="resume_tabs" target="analysis_content" edge="1">
          <mxGeometry relative="1" as="geometry" />
        </mxCell>
        <mxCell id="DRcJ01BgWuFrHOqKFsZg-42" value="&lt;font style=&quot;font-size: 36px;&quot;&gt;2&lt;/font&gt;" style="text;html=1;align=center;verticalAlign=middle;resizable=0;points=[];autosize=1;strokeColor=none;fillColor=none;" parent="1" vertex="1">
          <mxGeometry x="100" y="40" width="40" height="60" as="geometry" />
        </mxCell>
        <mxCell id="DRcJ01BgWuFrHOqKFsZg-43" value="&lt;font style=&quot;font-size: 36px;&quot;&gt;1&lt;/font&gt;" style="text;html=1;align=center;verticalAlign=middle;resizable=0;points=[];autosize=1;strokeColor=none;fillColor=none;" parent="1" vertex="1">
          <mxGeometry x="-420" y="40" width="40" height="60" as="geometry" />
        </mxCell>
        <mxCell id="DRcJ01BgWuFrHOqKFsZg-44" value="&lt;font style=&quot;font-size: 36px;&quot;&gt;2е&lt;/font&gt;" style="text;html=1;align=center;verticalAlign=middle;resizable=0;points=[];autosize=1;strokeColor=none;fillColor=none;" parent="1" vertex="1">
          <mxGeometry x="40" y="760" width="60" height="60" as="geometry" />
        </mxCell>
        <mxCell id="DRcJ01BgWuFrHOqKFsZg-45" value="&lt;font style=&quot;font-size: 36px;&quot;&gt;3&lt;/font&gt;" style="text;html=1;align=center;verticalAlign=middle;resizable=0;points=[];autosize=1;strokeColor=none;fillColor=none;" parent="1" vertex="1">
          <mxGeometry x="970" y="40" width="40" height="60" as="geometry" />
        </mxCell>
        <mxCell id="DRcJ01BgWuFrHOqKFsZg-46" value="&lt;font style=&quot;font-size: 36px;&quot;&gt;4&lt;/font&gt;" style="text;html=1;align=center;verticalAlign=middle;resizable=0;points=[];autosize=1;strokeColor=none;fillColor=none;" parent="1" vertex="1">
          <mxGeometry x="1860" y="40" width="40" height="60" as="geometry" />
        </mxCell>
        <mxCell id="DRcJ01BgWuFrHOqKFsZg-47" value="&lt;font style=&quot;font-size: 36px;&quot;&gt;4а&lt;/font&gt;" style="text;html=1;align=center;verticalAlign=middle;resizable=0;points=[];autosize=1;strokeColor=none;fillColor=none;" parent="1" vertex="1">
          <mxGeometry x="1990" y="770" width="60" height="60" as="geometry" />
        </mxCell>
        <mxCell id="DRcJ01BgWuFrHOqKFsZg-48" value="&lt;font style=&quot;font-size: 36px;&quot;&gt;5&lt;/font&gt;" style="text;html=1;align=center;verticalAlign=middle;resizable=0;points=[];autosize=1;strokeColor=none;fillColor=none;" parent="1" vertex="1">
          <mxGeometry x="2770" y="40" width="40" height="60" as="geometry" />
        </mxCell>
        <mxCell id="DRcJ01BgWuFrHOqKFsZg-49" value="&lt;font style=&quot;font-size: 36px;&quot;&gt;8е&lt;/font&gt;" style="text;html=1;align=center;verticalAlign=middle;resizable=0;points=[];autosize=1;strokeColor=none;fillColor=none;" parent="1" vertex="1">
          <mxGeometry x="3710" y="510" width="60" height="60" as="geometry" />
        </mxCell>
        <mxCell id="DRcJ01BgWuFrHOqKFsZg-50" value="&lt;font style=&quot;font-size: 36px;&quot;&gt;13е&lt;/font&gt;" style="text;html=1;align=center;verticalAlign=middle;resizable=0;points=[];autosize=1;strokeColor=none;fillColor=none;" parent="1" vertex="1">
          <mxGeometry x="3690" y="940" width="80" height="60" as="geometry" />
        </mxCell>
        <mxCell id="DRcJ01BgWuFrHOqKFsZg-51" value="&lt;font style=&quot;font-size: 36px;&quot;&gt;11е&lt;/font&gt;" style="text;html=1;align=center;verticalAlign=middle;resizable=0;points=[];autosize=1;strokeColor=none;fillColor=none;" parent="1" vertex="1">
          <mxGeometry x="3690" y="720" width="80" height="60" as="geometry" />
        </mxCell>
        <mxCell id="DRcJ01BgWuFrHOqKFsZg-52" value="&lt;font style=&quot;font-size: 36px;&quot;&gt;6&lt;/font&gt;" style="text;html=1;align=center;verticalAlign=middle;resizable=0;points=[];autosize=1;strokeColor=none;fillColor=none;" parent="1" vertex="1">
          <mxGeometry x="4180" y="40" width="40" height="60" as="geometry" />
        </mxCell>
        <mxCell id="DRcJ01BgWuFrHOqKFsZg-53" value="&lt;font style=&quot;font-size: 36px;&quot;&gt;8&lt;/font&gt;" style="text;html=1;align=center;verticalAlign=middle;resizable=0;points=[];autosize=1;strokeColor=none;fillColor=none;" parent="1" vertex="1">
          <mxGeometry x="5570" y="40" width="40" height="60" as="geometry" />
        </mxCell>
        <mxCell id="DRcJ01BgWuFrHOqKFsZg-54" value="&lt;font style=&quot;font-size: 36px;&quot;&gt;7&lt;/font&gt;" style="text;html=1;align=center;verticalAlign=middle;resizable=0;points=[];autosize=1;strokeColor=none;fillColor=none;" parent="1" vertex="1">
          <mxGeometry x="4670" y="40" width="40" height="60" as="geometry" />
        </mxCell>
        <mxCell id="DRcJ01BgWuFrHOqKFsZg-55" value="&lt;font style=&quot;font-size: 36px;&quot;&gt;9&lt;/font&gt;" style="text;html=1;align=center;verticalAlign=middle;resizable=0;points=[];autosize=1;strokeColor=none;fillColor=none;" parent="1" vertex="1">
          <mxGeometry x="6470" y="45" width="40" height="60" as="geometry" />
        </mxCell>
        <mxCell id="QZZoLhIz2kQqY21wWTyL-1" value="" style="group" vertex="1" connectable="0" parent="1">
          <mxGeometry x="3760" y="280" width="410" height="160" as="geometry" />
        </mxCell>
        <mxCell id="QZZoLhIz2kQqY21wWTyL-2" value="" style="group" vertex="1" connectable="0" parent="QZZoLhIz2kQqY21wWTyL-1">
          <mxGeometry width="410" height="160" as="geometry" />
        </mxCell>
        <mxCell id="QZZoLhIz2kQqY21wWTyL-3" value="" style="verticalLabelPosition=bottom;verticalAlign=top;html=1;shape=mxgraph.basic.rect;fillColor2=none;strokeWidth=1;size=20;indent=5;" vertex="1" parent="QZZoLhIz2kQqY21wWTyL-2">
          <mxGeometry width="410" height="160" as="geometry" />
        </mxCell>
        <mxCell id="QZZoLhIz2kQqY21wWTyL-4" value="Icon" style="icon;html=1;image=img/clipart/Gear_128x128.png" vertex="1" parent="QZZoLhIz2kQqY21wWTyL-2">
          <mxGeometry x="20" y="10" width="60" height="60" as="geometry" />
        </mxCell>
        <mxCell id="QZZoLhIz2kQqY21wWTyL-5" value="&lt;div&gt;УВЕДОМЛЕНИЕ:&lt;/div&gt;&lt;div&gt;&lt;br&gt;&lt;/div&gt;Подходящие кандидаты отсутствуют" style="text;html=1;align=center;verticalAlign=middle;whiteSpace=wrap;rounded=0;" vertex="1" parent="QZZoLhIz2kQqY21wWTyL-2">
          <mxGeometry x="100" y="30" width="260" height="95" as="geometry" />
        </mxCell>
        <mxCell id="QZZoLhIz2kQqY21wWTyL-6" value="ОК" style="strokeWidth=1;shadow=0;dashed=0;align=center;html=1;shape=mxgraph.mockup.buttons.button;strokeColor=#666666;fontColor=#ffffff;mainText=;buttonStyle=round;fontSize=17;fontStyle=1;fillColor=#008cff;whiteSpace=wrap;" vertex="1" parent="QZZoLhIz2kQqY21wWTyL-2">
          <mxGeometry x="160" y="120" width="120" height="30" as="geometry" />
        </mxCell>
        <mxCell id="QZZoLhIz2kQqY21wWTyL-7" value="&lt;font style=&quot;font-size: 36px;&quot;&gt;8а&lt;/font&gt;" style="text;html=1;align=center;verticalAlign=middle;resizable=0;points=[];autosize=1;strokeColor=none;fillColor=none;" vertex="1" parent="1">
          <mxGeometry x="3700" y="290" width="60" height="60" as="geometry" />
        </mxCell>
        <mxCell id="QZZoLhIz2kQqY21wWTyL-8" style="edgeStyle=orthogonalEdgeStyle;rounded=0;orthogonalLoop=1;jettySize=auto;html=1;exitX=0.996;exitY=0.438;exitDx=0;exitDy=0;exitPerimeter=0;" edge="1" parent="1" source="DRcJ01BgWuFrHOqKFsZg-17">
          <mxGeometry relative="1" as="geometry">
            <mxPoint x="3750" y="364" as="targetPoint" />
          </mxGeometry>
        </mxCell>
      </root>
    </mxGraphModel>
  </diagram>
</mxfile>
